<?xml version="1.0" encoding="utf-8"?>
<!-- Generator: Adobe Illustrator 22.1.0, SVG Export Plug-In . SVG Version: 6.00 Build 0)  -->
<svg version="1.1" id="Camada_1" xmlns="http://www.w3.org/2000/svg" xmlns:xlink="http://www.w3.org/1999/xlink" x="0px" y="0px"
	 viewBox="0 0 181 188" style="enable-background:new 0 0 181 188;" xml:space="preserve">
<style type="text/css">
	.st0{fill:#9ECE61;}
	.st1{fill:#3A3A3A;}
	.st2{font-family:'FredokaOne-Regular';}
	.st3{font-size:30px;}
</style>
<g>
	<path class="st0" d="M68.3,6.5h33.4c0.9,0,1.6,0.5,1.9,1.3l22.8,61.5c0.5,1.3-0.5,2.8-1.9,2.8H93.4c-1.4,0-2.4,1.4-1.9,2.8l19,49.1
		c0.9,2.2-2.2,3.9-3.6,1.9l-52-71.4c-1-1.4,0-3.3,1.7-3.3h23.1c1.4,0,2.4-1.4,1.9-2.8L66.4,9.3C65.9,7.9,66.8,6.5,68.3,6.5z"/>
	<text transform="matrix(1 0 0 1 8.1362 178.4453)" class="st1 st2 st3">REAL FEED</text>
</g>
</svg>
